<?xml version="1.0" encoding="utf-8"?>
<!-- Generator: Adobe Illustrator 25.3.1, SVG Export Plug-In . SVG Version: 6.00 Build 0)  -->
<svg version="1.1" id="Capa_1" xmlns="http://www.w3.org/2000/svg" xmlns:xlink="http://www.w3.org/1999/xlink" x="0px" y="0px"
	 viewBox="0 0 1000 1000" style="enable-background:new 0 0 1000 1000;" xml:space="preserve">
<style type="text/css">
	.st0{opacity:0.8;fill:url(#SVGID_1_);}
	.st1{fill:#FFFFFF;}
</style>
<g>
	<radialGradient id="SVGID_1_" cx="530.8459" cy="522.5538" r="84.9657" gradientUnits="userSpaceOnUse">
		<stop  offset="0" style="stop-color:#000057"/>
		<stop  offset="0.2482" style="stop-color:#4C4C89;stop-opacity:0.7518"/>
		<stop  offset="0.5193" style="stop-color:#9898BB;stop-opacity:0.4807"/>
		<stop  offset="0.744" style="stop-color:#D0D0E0;stop-opacity:0.256"/>
		<stop  offset="0.9103" style="stop-color:#F2F2F6;stop-opacity:0.0897"/>
		<stop  offset="1" style="stop-color:#FFFFFF;stop-opacity:0"/>
	</radialGradient>
	<circle class="st0" cx="530.85" cy="522.55" r="84.97"/>
	<g>
		<path d="M567.92,488.71c0-31.91-25.87-57.78-57.78-57.78c-31.91,0-57.78,25.87-57.78,57.78c0,28.84,21.13,52.75,48.75,57.08
			v-40.38h-14.67v-16.7h14.67v-12.73c0-14.48,8.63-22.48,21.82-22.48c6.32,0,12.93,1.13,12.93,1.13v14.22h-7.29
			c-7.18,0-9.42,4.45-9.42,9.02v10.84h16.03l-2.56,16.7h-13.46v40.38C546.79,541.45,567.92,517.55,567.92,488.71z"/>
		<path class="st1" d="M532.63,505.41l2.56-16.7h-16.03v-10.84c0-4.57,2.24-9.02,9.42-9.02h7.29v-14.22c0,0-6.61-1.13-12.93-1.13
			c-13.2,0-21.82,8-21.82,22.48v12.73h-14.67v16.7h14.67v40.38c2.94,0.46,5.96,0.7,9.03,0.7c3.07,0,6.09-0.24,9.03-0.7v-40.38
			H532.63z"/>
	</g>
</g>
</svg>
